<svg width="90" height="90" viewBox="0 0 90 90" fill="none" xmlns="http://www.w3.org/2000/svg">
<path id="Ellipse 1" d="M28.1427 3.27672C17.7568 7.47291 9.30922 15.3918 4.45154 25.4853C-0.406139 35.5788 -1.32468 47.1212 1.87548 57.856C5.07564 68.5907 12.1644 77.746 21.756 83.532C31.3475 89.318 42.7523 91.3187 53.7405 89.143C64.7288 86.9673 74.5106 80.7715 81.1736 71.767C87.8365 62.7626 90.9016 51.5967 89.7696 40.4525C88.6376 29.3082 83.39 18.9868 75.0525 11.506C66.715 4.02519 55.8872 -0.0771019 44.6859 0.00109654L44.7487 9.00088C53.7097 8.93832 62.372 12.2202 69.042 18.2048C75.712 24.1894 79.9101 32.4466 80.8157 41.362C81.7213 50.2774 79.2692 59.21 73.9388 66.4136C68.6085 73.6172 60.783 78.5738 51.9924 80.3144C43.2018 82.055 34.078 80.4544 26.4048 75.8256C18.7315 71.1968 13.0605 63.8726 10.5004 55.2848C7.94025 46.697 8.67509 37.4631 12.5612 29.3883C16.4474 21.3135 23.2054 14.9783 31.5142 11.6214L28.1427 3.27672Z" fill="#0066FF"/>
</svg>
