<svg width="155" height="28" viewBox="0 0 155 28" fill="none" xmlns="http://www.w3.org/2000/svg">
<path d="M9.13086 1.40625L4.68359 27H0.359375L4.80664 1.40625H9.13086ZM24.1953 1.40625L11.9434 13.7988L5.03516 20.1094L5.05273 15.3984L9.97461 10.2832L18.6582 1.40625H24.1953ZM15.125 27L8.9375 14.6953L12.2598 11.8477L19.959 27H15.125ZM29.7676 7.98047L26.4629 27H22.332L25.6367 7.98047H29.7676ZM26.2168 3.05859C26.2051 2.37891 26.4277 1.82227 26.8848 1.38867C27.3418 0.955078 27.9043 0.732422 28.5723 0.720703C29.2168 0.708984 29.7676 0.908203 30.2246 1.31836C30.6934 1.7168 30.9277 2.25 30.9277 2.91797C30.9395 3.59766 30.7109 4.14844 30.2422 4.57031C29.7852 4.99219 29.2285 5.20898 28.5723 5.2207C27.9277 5.23242 27.377 5.04492 26.9199 4.6582C26.4629 4.25977 26.2285 3.72656 26.2168 3.05859ZM35.6387 0H39.7871L35.7617 23.1855L34.7246 27H30.9453L35.6387 0ZM48.7871 17.209L48.752 17.5781C48.5996 18.75 48.3242 19.9219 47.9258 21.0938C47.5391 22.2539 47 23.3145 46.3086 24.2754C45.6289 25.2363 44.7852 26.0039 43.7773 26.5781C42.7812 27.1406 41.6035 27.4043 40.2441 27.3691C39.0371 27.3457 38.0293 27.0469 37.2207 26.4727C36.4238 25.8984 35.7969 25.1543 35.3398 24.2402C34.8828 23.3262 34.5723 22.3359 34.4082 21.2695C34.2441 20.1914 34.1855 19.1367 34.2324 18.1055L34.373 16.9102C34.5723 15.8203 34.8887 14.7246 35.3223 13.623C35.7676 12.5098 36.3418 11.4961 37.0449 10.582C37.748 9.65625 38.5859 8.92383 39.5586 8.38477C40.543 7.83398 41.6621 7.57617 42.916 7.61133C44.2285 7.64648 45.2949 7.96289 46.1152 8.56055C46.9355 9.14648 47.5566 9.9082 47.9785 10.8457C48.4121 11.7832 48.6816 12.8086 48.7871 13.9219C48.9043 15.0352 48.9043 16.1309 48.7871 17.209ZM44.6035 17.5605L44.6562 17.1738C44.7266 16.5762 44.7559 15.9258 44.7441 15.2227C44.7441 14.5195 44.6562 13.8516 44.4805 13.2188C44.3047 12.5859 43.9941 12.0703 43.5488 11.6719C43.1152 11.2617 42.4883 11.0449 41.668 11.0215C40.9414 10.9863 40.2852 11.1035 39.6992 11.373C39.1133 11.6309 38.5977 11.9941 38.1523 12.4629C37.707 12.9199 37.3379 13.4473 37.0449 14.0449C36.752 14.6426 36.5293 15.2637 36.377 15.9082L35.8848 19.125C35.8496 19.9102 35.9492 20.666 36.1836 21.3926C36.418 22.1191 36.8047 22.7227 37.3438 23.2031C37.8828 23.6719 38.5918 23.918 39.4707 23.9414C40.3496 23.9766 41.0938 23.8008 41.7031 23.4141C42.3242 23.0273 42.8281 22.5176 43.2148 21.8848C43.6133 21.252 43.9238 20.5547 44.1465 19.793C44.3691 19.0312 44.5215 18.2871 44.6035 17.5605ZM59.7031 0L55.0098 27H50.8789L55.5547 0H59.7031ZM68.0352 27.3516C66.7344 27.3281 65.5801 27.0762 64.5723 26.5957C63.5762 26.1035 62.75 25.4414 62.0938 24.6094C61.4375 23.7656 60.9629 22.7988 60.6699 21.709C60.377 20.6074 60.2773 19.4355 60.3711 18.1934L60.4414 17.4727C60.5703 16.1953 60.8809 14.9648 61.373 13.7812C61.8652 12.5859 62.5215 11.5254 63.3418 10.5996C64.1738 9.66211 65.1523 8.92383 66.2773 8.38477C67.4023 7.8457 68.6562 7.59375 70.0391 7.62891C71.3633 7.65234 72.4824 7.92773 73.3965 8.45508C74.3105 8.98242 75.0371 9.68555 75.5762 10.5645C76.1152 11.4316 76.4727 12.416 76.6484 13.5176C76.8359 14.6191 76.8652 15.7617 76.7363 16.9453L76.4902 18.7559H62.2168L62.709 15.7148L72.7812 15.7324L72.8516 15.3633C72.957 14.625 72.916 13.9277 72.7285 13.2715C72.5527 12.6152 72.2246 12.0762 71.7441 11.6543C71.2637 11.2324 70.6191 11.0098 69.8105 10.9863C68.9316 10.9629 68.1758 11.1445 67.543 11.5312C66.9219 11.918 66.4062 12.4395 65.9961 13.0957C65.5859 13.752 65.2637 14.4668 65.0293 15.2402C64.8066 16.002 64.6484 16.7461 64.5547 17.4727L64.4844 18.1758C64.4141 18.8672 64.4316 19.5527 64.5371 20.2324C64.6426 20.9121 64.8477 21.5332 65.1523 22.0957C65.457 22.6465 65.8789 23.0977 66.418 23.4492C66.957 23.7891 67.625 23.9707 68.4219 23.9941C69.418 24.0176 70.3203 23.8125 71.1289 23.3789C71.9492 22.9336 72.6934 22.3594 73.3613 21.6562L75.4004 23.8184C74.8613 24.627 74.1934 25.2949 73.3965 25.8223C72.6113 26.3496 71.7559 26.7422 70.8301 27C69.916 27.2461 68.9844 27.3633 68.0352 27.3516ZM98.7969 17.4727L92.082 17.4551L92.6973 13.957L98.9375 13.9746C99.9102 13.9746 100.801 13.8105 101.609 13.4824C102.43 13.1426 103.104 12.6387 103.631 11.9707C104.17 11.3027 104.504 10.4531 104.633 9.42188C104.762 8.55469 104.697 7.79297 104.439 7.13672C104.182 6.46875 103.76 5.94727 103.174 5.57227C102.588 5.18555 101.85 4.97461 100.959 4.93945L95.5977 4.92188L91.7656 27H87.4414L91.8887 1.40625L101.082 1.42383C102.664 1.45898 104.076 1.79883 105.318 2.44336C106.561 3.07617 107.51 3.97852 108.166 5.15039C108.834 6.32227 109.098 7.73438 108.957 9.38672C108.805 11.2266 108.242 12.75 107.27 13.957C106.309 15.1523 105.084 16.0371 103.596 16.6113C102.107 17.1855 100.508 17.4727 98.7969 17.4727ZM131.879 13.4648L131.703 14.8535C131.469 16.4707 131.035 18.0352 130.402 19.5469C129.781 21.0469 128.961 22.3945 127.941 23.5898C126.934 24.7734 125.727 25.7051 124.32 26.3848C122.914 27.0645 121.314 27.3867 119.521 27.3516C117.811 27.3164 116.369 26.9355 115.197 26.209C114.025 25.4824 113.105 24.5215 112.438 23.3262C111.781 22.1309 111.342 20.8066 111.119 19.3535C110.896 17.8887 110.879 16.4062 111.066 14.9062L111.26 13.5176C111.494 11.9121 111.928 10.3594 112.561 8.85938C113.193 7.35938 114.02 6.01758 115.039 4.83398C116.059 3.63867 117.271 2.70117 118.678 2.02148C120.084 1.3418 121.678 1.01953 123.459 1.05469C125.182 1.08984 126.623 1.4707 127.783 2.19727C128.955 2.91211 129.869 3.86719 130.525 5.0625C131.193 6.25781 131.633 7.58203 131.844 9.03516C132.055 10.4883 132.066 11.9648 131.879 13.4648ZM127.379 14.9062L127.572 13.4473C127.678 12.5684 127.725 11.6309 127.713 10.6348C127.701 9.62695 127.561 8.67773 127.291 7.78711C127.021 6.88477 126.564 6.14648 125.92 5.57227C125.287 4.99805 124.385 4.6875 123.213 4.64062C122.006 4.59375 120.951 4.83398 120.049 5.36133C119.158 5.87695 118.408 6.57422 117.799 7.45312C117.189 8.33203 116.703 9.29883 116.34 10.3535C115.988 11.4082 115.742 12.4453 115.602 13.4648L115.408 14.9238C115.291 15.791 115.238 16.7285 115.25 17.7363C115.273 18.7441 115.42 19.6992 115.689 20.6016C115.959 21.5039 116.416 22.2539 117.061 22.8516C117.705 23.4375 118.602 23.748 119.75 23.7832C120.98 23.8301 122.041 23.5898 122.932 23.0625C123.822 22.5352 124.572 21.832 125.182 20.9531C125.791 20.0742 126.271 19.1074 126.623 18.0527C126.986 16.998 127.238 15.9492 127.379 14.9062ZM148.051 20.2852C148.156 19.5938 148.092 19.0137 147.857 18.5449C147.623 18.0645 147.283 17.666 146.838 17.3496C146.404 17.0215 145.912 16.7461 145.361 16.5234C144.811 16.3008 144.266 16.0898 143.727 15.8906C142.836 15.5742 141.957 15.1992 141.09 14.7656C140.223 14.332 139.438 13.8164 138.734 13.2188C138.043 12.6211 137.504 11.918 137.117 11.1094C136.73 10.2891 136.572 9.33398 136.643 8.24414C136.736 7.01367 137.082 5.94727 137.68 5.04492C138.289 4.13086 139.062 3.375 140 2.77734C140.938 2.17969 141.963 1.74023 143.076 1.45898C144.189 1.16602 145.297 1.03125 146.398 1.05469C147.957 1.08984 149.346 1.42383 150.564 2.05664C151.783 2.68945 152.738 3.58594 153.43 4.74609C154.121 5.90625 154.438 7.2832 154.379 8.87695H150.09C150.16 7.98633 150.049 7.22461 149.756 6.5918C149.475 5.94727 149.029 5.44922 148.42 5.09766C147.811 4.73438 147.055 4.54688 146.152 4.53516C145.344 4.51172 144.564 4.63477 143.814 4.9043C143.064 5.16211 142.426 5.56641 141.898 6.11719C141.383 6.66797 141.061 7.37695 140.932 8.24414C140.838 8.85352 140.92 9.38086 141.178 9.82617C141.447 10.2715 141.816 10.6465 142.285 10.9512C142.754 11.2559 143.258 11.5137 143.797 11.7246C144.336 11.9355 144.84 12.123 145.309 12.2871C146.258 12.6152 147.166 13.0078 148.033 13.4648C148.912 13.9102 149.691 14.4434 150.371 15.0645C151.051 15.6855 151.572 16.4238 151.936 17.2793C152.299 18.123 152.439 19.1133 152.357 20.25C152.252 21.5039 151.9 22.5879 151.303 23.502C150.705 24.4043 149.943 25.1426 149.018 25.7168C148.092 26.291 147.072 26.7129 145.959 26.9824C144.846 27.252 143.721 27.375 142.584 27.3516C141.377 27.3398 140.234 27.1523 139.156 26.7891C138.09 26.4258 137.152 25.8984 136.344 25.207C135.535 24.5039 134.908 23.6543 134.463 22.6582C134.029 21.6621 133.836 20.5254 133.883 19.248L138.172 19.2656C138.125 20.0156 138.195 20.6836 138.383 21.2695C138.582 21.8438 138.887 22.3242 139.297 22.7109C139.707 23.0977 140.205 23.3906 140.791 23.5898C141.389 23.7891 142.057 23.8887 142.795 23.8887C143.592 23.9121 144.365 23.8008 145.115 23.5547C145.877 23.3086 146.521 22.9219 147.049 22.3945C147.588 21.8555 147.922 21.1523 148.051 20.2852Z" fill="url(#paint0_linear_3122_378)"/>
<defs>
<linearGradient id="paint0_linear_3122_378" x1="-23" y1="15" x2="177" y2="15" gradientUnits="userSpaceOnUse">
<stop stop-color="#00D1FF"/>
<stop offset="1" stop-color="#0066FF"/>
</linearGradient>
</defs>
</svg>
