<svg width="25" height="24" viewBox="0 0 25 24" fill="none" xmlns="http://www.w3.org/2000/svg">
<g id="iconmonstr-gear-3 1" clip-path="url(#clip0_3403_293)">
<path id="Vector" d="M24.5 13.616V10.384C22.849 9.797 21.807 9.632 21.281 8.365C20.754 7.094 21.381 6.23 22.128 4.657L19.843 2.372C18.282 3.114 17.41 3.747 16.136 3.219C14.867 2.693 14.7 1.643 14.116 0H10.884C10.302 1.635 10.135 2.692 8.865 3.219C7.594 3.747 6.732 3.121 5.157 2.372L2.872 4.657C3.617 6.225 4.247 7.091 3.719 8.364C3.192 9.635 2.135 9.802 0.5 10.384V13.616C2.132 14.196 3.192 14.365 3.719 15.635C4.249 16.917 3.605 17.801 2.872 19.342L5.157 21.628C6.719 20.885 7.591 20.253 8.864 20.781C10.134 21.307 10.301 22.36 10.884 24H14.116C14.698 22.364 14.865 21.31 16.143 20.778H16.144C17.406 20.254 18.264 20.879 19.842 21.629L22.127 19.343C21.384 17.78 20.752 16.91 21.279 15.637C21.806 14.366 22.867 14.197 24.5 13.616ZM12.5 17C9.738 17 7.5 14.761 7.5 12C7.5 9.239 9.738 7 12.5 7C15.262 7 17.5 9.239 17.5 12C17.5 14.761 15.262 17 12.5 17ZM15.5 12C15.5 13.654 14.154 15 12.5 15C10.846 15 9.5 13.654 9.5 12C9.5 10.346 10.846 9 12.5 9C14.154 9 15.5 10.346 15.5 12Z" fill="black"/>
</g>
<defs>
<clipPath id="clip0_3403_293">
<rect width="24" height="24" fill="white" transform="translate(0.5)"/>
</clipPath>
</defs>
</svg>
